<svg width="393.2150146484375px" height="120.8px" xmlns="http://www.w3.org/2000/svg" viewBox="53.392492675781256 14.600000000000001 393.2150146484375 120.8" style="background: rgba(0, 0, 0, 0);" preserveAspectRatio="xMidYMid"><defs><filter id="editing-extrusion" x="-100%" y="-100%" width="300%" height="300%"><feFlood result="color1" flood-color="#444"></feFlood><feConvolveMatrix order="8,8" divisor="1" kernelMatrix="1 0 0 0 0 0 0 0 0 1 0 0 0 0 0 0 0 0 1 0 0 0 0 0 0 0 0 1 0 0 0 0 0 0 0 0 1 0 0 0 0 0 0 0 0 1 0 0 0 0 0 0 0 0 1 0 0 0 0 0 0 0 0 1" in="SourceAlpha" result="extrude"></feConvolveMatrix><feComposite in="color1" in2="extrude" result="comp-extrude" operator="in"></feComposite><feOffset dx="4" dy="4" in="comp-extrude" result="offset-extrude"></feOffset><feMerge><feMergeNode in="offset-extrude"></feMergeNode><feMergeNode in="SourceGraphic"></feMergeNode></feMerge></filter></defs><g filter="url(#editing-extrusion)"><g transform="translate(112.78001463413239, 98.68000030517578)"><path d="M34.50-13.25L34.50-13.25L34.50-13.25Q36.16-12.03 36.16-9.44L36.16-9.44L36.16-9.44Q36.16-6.85 35.04-5.02L35.04-5.02L35.04-5.02Q33.92-3.20 31.74-1.79L31.74-1.79L31.74-1.79Q27.07 1.22 18.91 1.22L18.91 1.22L18.91 1.22Q10.75 1.22 6.30-3.04L6.30-3.04L6.30-3.04Q1.86-7.30 1.86-14.85L1.86-14.85L1.86-14.85Q1.86-25.54 7.42-33.66L7.42-33.66L7.42-33.66Q11.65-39.68 19.20-42.24L19.20-42.24L19.20-42.24Q23.10-43.52 26.94-43.52L26.94-43.52L26.94-43.52Q30.78-43.52 33.15-43.01L33.15-43.01L33.15-43.01Q35.52-42.50 37.31-41.47L37.31-41.47L37.31-41.47Q41.22-39.23 41.22-35.65L41.22-35.65L41.22-35.65Q41.22-32.38 38.14-29.95L38.14-29.95L38.14-29.95Q35.33-27.78 33.02-27.78L33.02-27.78L33.02-27.78Q30.72-27.78 29.76-28.10L29.76-28.10L29.76-28.10Q30.02-30.40 30.02-31.90L30.02-31.90L30.02-31.90Q30.02-33.41 29.95-34.50L29.95-34.50L29.95-34.50Q29.89-35.58 29.57-36.61L29.57-36.61L29.57-36.61Q28.93-38.98 26.98-38.98L26.98-38.98L26.98-38.98Q25.02-38.98 23.07-37.15L23.07-37.15L23.07-37.15Q21.12-35.33 19.46-32.26L19.46-32.26L19.46-32.26Q15.68-25.28 15.68-17.02L15.68-17.02L15.68-17.02Q15.68-13.06 17.92-10.78L17.92-10.78L17.92-10.78Q20.16-8.51 24.96-8.51L24.96-8.51L24.96-8.51Q28.54-8.51 31.94-10.88L31.94-10.88L31.94-10.88Q33.41-11.90 34.50-13.25ZM73.66-7.10L73.66-7.10L73.66-7.10Q73.66-4.29 76.54-3.46L76.54-3.46L76.54-3.46Q75.84-1.09 73.09 0.19L73.09 0.19L73.09 0.19Q70.78 1.28 68.26 1.28L68.26 1.28L68.26 1.28Q65.73 1.28 64.42 0.61L64.42 0.61L64.42 0.61Q63.10-0.06 62.40-1.15L62.40-1.15L62.40-1.15Q61.25-2.82 61.25-5.95L61.25-5.95L61.25-5.95Q61.25-7.81 62.27-12.93L62.27-12.93L63.17-17.79L63.17-17.79Q64.26-23.36 64.26-25.41L64.26-25.41L64.26-25.41Q64.26-28.99 62.27-28.99L62.27-28.99L62.27-28.99Q59.78-28.99 58.18-25.34L58.18-25.34L58.18-25.34Q57.54-23.94 57.09-21.82L57.09-21.82L52.74 0L39.87 1.28L48.90-44.80L61.76-46.08L61.25-43.52L61.25-43.52Q59.46-33.66 57.92-30.34L57.92-30.34L57.92-30.34Q61.50-33.92 68.10-33.92L68.10-33.92L68.10-33.92Q75.07-33.92 76.35-29.31L76.35-29.31L76.35-29.31Q76.80-27.84 76.80-26.56L76.80-26.56L76.80-26.56Q76.80-25.28 76.70-24.29L76.70-24.29L76.70-24.29Q76.61-23.30 76.29-21.50L76.29-21.50L75.46-16.90L73.98-9.66L73.98-9.66Q73.66-8.19 73.66-7.10ZM107.65-10.82L107.65-10.82L107.65-10.82Q109.25-9.73 109.25-7.33L109.25-7.33L109.25-7.33Q109.25-4.93 108.03-3.39L108.03-3.39L108.03-3.39Q106.82-1.86 104.83-0.83L104.83-0.83L104.83-0.83Q100.74 1.28 96.32 1.28L96.32 1.28L96.32 1.28Q91.90 1.28 89.31 0.32L89.31 0.32L89.31 0.32Q86.72-0.64 84.99-2.43L84.99-2.43L84.99-2.43Q81.60-5.82 81.60-12.03L81.60-12.03L81.60-12.03Q81.60-21.70 86.85-27.58L86.85-27.58L86.85-27.58Q92.48-33.92 102.27-33.92L102.27-33.92L102.27-33.92Q108.35-33.92 111.36-31.36L111.36-31.36L111.36-31.36Q113.60-29.44 113.60-26.30L113.60-26.30L113.60-26.30Q113.60-15.04 94.14-15.04L94.14-15.04L94.14-15.04Q93.89-13.38 93.89-11.97L93.89-11.97L93.89-11.97Q93.89-9.02 95.20-7.90L95.20-7.90L95.20-7.90Q96.51-6.78 98.94-6.78L98.94-6.78L98.94-6.78Q101.38-6.78 103.97-7.90L103.97-7.90L103.97-7.90Q106.56-9.02 107.65-10.82ZM94.59-17.79L94.59-17.79L94.59-17.79Q99.14-17.79 101.76-20.61L101.76-20.61L101.76-20.61Q104.38-23.30 104.38-27.58L104.38-27.58L104.38-27.58Q104.38-29.06 103.84-29.86L103.84-29.86L103.84-29.86Q103.30-30.66 102.21-30.66L102.21-30.66L102.21-30.66Q101.12-30.66 100.19-30.24L100.19-30.24L100.19-30.24Q99.26-29.82 98.30-28.42L98.30-28.42L98.30-28.42Q95.94-25.22 94.59-17.79ZM115.14-0.32L115.14-0.32L123.20-42.24L123.20-42.24Q130.75-42.88 135.62-42.88L135.62-42.88L135.62-42.88Q140.48-42.88 143.62-42.46L143.62-42.46L143.62-42.46Q146.75-42.05 148.86-40.96L148.86-40.96L148.86-40.96Q153.09-38.91 153.09-33.28L153.09-33.28L153.09-33.28Q153.09-30.02 150.27-27.26L150.27-27.26L150.27-27.26Q147.65-24.77 144.77-24.19L144.77-24.19L144.77-24.19Q147.84-23.68 150.02-21.38L150.02-21.38L150.02-21.38Q152.32-18.94 152.32-15.17L152.32-15.17L152.32-15.17Q152.32-7.87 146.88-3.62L146.88-3.62L146.88-3.62Q141.44 0.64 130.75 0.64L130.75 0.64L130.75 0.64Q123.39 0.64 115.14-0.32ZM132.54-20.61L129.34-4.03L129.34-4.03Q129.92-3.97 130.05-3.97L130.05-3.97L130.62-3.97L130.62-3.97Q135.87-3.97 138.11-7.42L138.11-7.42L138.11-7.42Q139.78-10.11 139.78-15.04L139.78-15.04L139.78-15.04Q139.78-17.66 138.08-19.07L138.08-19.07L138.08-19.07Q136.38-20.48 132.54-20.61L132.54-20.61ZM142.27-33.22L142.27-33.22L142.27-33.22Q142.27-38.53 137.15-38.53L137.15-38.53L136.58-38.53L136.58-38.53Q136.32-38.53 135.94-38.46L135.94-38.46L133.38-24.96L134.02-24.96L134.02-24.96Q142.27-25.15 142.27-33.22ZM159.33-1.92L159.33-1.92L159.33-1.92Q157.82-3.58 157.15-6.21L157.15-6.21L157.15-6.21Q156.48-8.83 156.48-13.12L156.48-13.12L156.48-13.12Q156.48-17.41 157.95-21.31L157.95-21.31L157.95-21.31Q159.42-25.22 162.11-28.03L162.11-28.03L162.11-28.03Q167.62-33.92 176.70-33.92L176.70-33.92L176.70-33.92Q179.97-33.92 182.34-32.83L182.34-32.83L193.28-33.92L188.54-8.96L188.54-8.96Q188.35-8.19 188.35-6.78L188.35-6.78L188.35-6.78Q188.35-5.38 189.22-4.48L189.22-4.48L189.22-4.48Q190.08-3.58 191.36-3.46L191.36-3.46L191.36-3.46Q190.72-1.28 188.38 0L188.38 0L188.38 0Q186.05 1.28 183.42 1.28L183.42 1.28L183.42 1.28Q180.80 1.28 179.04 0.29L179.04 0.29L179.04 0.29Q177.28-0.70 176.77-2.37L176.77-2.37L176.77-2.37Q175.74-0.77 173.57 0.26L173.57 0.26L173.57 0.26Q171.39 1.28 168.48 1.28L168.48 1.28L168.48 1.28Q165.57 1.28 163.20 0.51L163.20 0.51L163.20 0.51Q160.83-0.26 159.33-1.92ZM172.83-27.90L172.83-27.90L172.83-27.90Q172.10-26.75 171.46-24.80L171.46-24.80L171.46-24.80Q170.82-22.85 169.76-17.63L169.76-17.63L169.76-17.63Q168.70-12.42 168.70-8.70L168.70-8.70L168.70-8.70Q168.70-4.99 169.28-3.90L169.28-3.90L169.28-3.90Q169.86-2.82 170.88-2.82L170.88-2.82L170.88-2.82Q172.93-2.82 174.43-4.77L174.43-4.77L174.43-4.77Q175.94-6.72 176.51-10.18L176.51-10.18L179.90-28.93L179.90-28.93Q178.56-30.08 176.99-30.08L176.99-30.08L176.99-30.08Q175.42-30.08 174.50-29.57L174.50-29.57L174.50-29.57Q173.57-29.06 172.83-27.90ZM223.81 1.28L223.81 1.28L223.81 1.28Q216.06 1.28 216.06-4.74L216.06-4.74L216.06-4.74Q216.13-6.40 216.64-9.22L216.64-9.22L217.79-15.10L217.79-15.10Q219.52-23.42 219.52-25.28L219.52-25.28L219.52-25.28Q219.52-28.99 217.34-28.99L217.34-28.99L217.34-28.99Q213.70-28.99 211.78-19.46L211.78-19.46L208.00 0L195.14 1.28L201.79-32.70L212.29-33.92L211.26-27.65L211.26-27.65Q214.27-33.92 223.49-33.92L223.49-33.92L223.49-33.92Q227.97-33.92 229.86-32.03L229.86-32.03L229.86-32.03Q231.74-30.14 231.74-25.92L231.74-25.92L231.74-25.92Q231.74-21.95 229.70-12.67L229.70-12.67L229.70-12.67Q228.74-8.51 228.74-6.94L228.74-6.94L228.74-6.94Q228.74-5.38 229.60-4.48L229.60-4.48L229.60-4.48Q230.46-3.58 231.74-3.46L231.74-3.46L231.74-3.46Q231.10-1.28 228.90 0L228.90 0L228.90 0Q226.69 1.28 223.81 1.28ZM253.38-30.34L253.38-30.34L253.38-30.34Q256.83-33.92 264.13-33.92L264.13-33.92L264.13-33.92Q268.16-33.92 270.37-31.78L270.37-31.78L270.37-31.78Q272.58-29.63 272.58-25.70L272.58-25.70L272.58-25.70Q272.58-21.76 270.37-18.98L270.37-18.98L270.37-18.98Q268.16-16.19 264.06-15.04L264.06-15.04L264.06-15.04Q264.38-13.76 264.83-12.42L264.83-12.42L265.73-9.86L265.73-9.86Q266.94-6.59 267.90-5.44L267.90-5.44L267.90-5.44Q268.86-4.29 270.14-3.90L270.14-3.90L270.14-3.90Q269.44-1.28 266.88 0.13L266.88 0.13L266.88 0.13Q264.83 1.28 262.02 1.28L262.02 1.28L262.02 1.28Q253.76 1.28 252.67-11.46L252.67-11.46L252.67-11.46Q252.48-13.25 252.48-15.04L252.48-15.04L252.48-15.04Q255.68-15.94 257.92-18.94L257.92-18.94L257.92-18.94Q260.16-21.95 260.16-25.47L260.16-25.47L260.16-25.47Q260.16-28.99 257.66-28.99L257.66-28.99L257.66-28.99Q255.87-28.99 254.46-27.01L254.46-27.01L254.46-27.01Q253.06-25.02 252.42-21.63L252.42-21.63L248.19 0L235.26 1.28L244.22-44.80L257.09-46.08L255.62-38.46L255.62-38.46Q254.66-33.09 253.38-30.34Z" fill="#ccc"></path></g></g><style>text {
  font-size: 64px;
  font-family: Arial Black;
  dominant-baseline: central;
  text-anchor: middle;
}</style></svg>